<svg id="svg2" stroke-linejoin="round" xmlns:rdf="http://www.w3.org/1999/02/22-rdf-syntax-ns#" xmlns="http://www.w3.org/2000/svg" fill-rule="evenodd" xml:space="preserve" height="156.03mm" width="187.61mm" version="1.2" xmlns:ooo="http://xml.openoffice.org/svg/export" preserveAspectRatio="xMidYMid" xmlns:cc="http://creativecommons.org/ns#" stroke-width="28.222" viewBox="0 0 18760.541 15602.893" xmlns:dc="http://purl.org/dc/elements/1.1/">
    <g id="g3395" stroke-linejoin="miter" stroke="#000" stroke-width="28.222px" fill="none">
        <path id="path3391" d="m704.14 15587 5350.4-567.3 11.123 200.22 3715.2-378.2 22.247-1946.6 222.47 11.124v456.06l800.89-11.123 44.494 1301.4 1713-155.73-22.247-1668.5h233.59l33.371 1668.5 5917.7-578.42v-3125.7l-5995.5 289.21 11.123 233.59-266.96 22.247-11.123-244.72-2436 144.6 11.123 166.85-255.84 11.123 11.123-3670.7 300.33-22.247-77.864 3225.8 8709.7-433.82-22.248-5428.2-8642.9 956.62 44.494 177.98-266.96 11.124-33.371-177.98-5061.2 533.92-111.24-5539.5-2525 66.741-11.123-1101.2-1579.5 33.37-11.123 55.617-511.68 22.247 66.741 2447.2 2602.9-55.617v278.09l-2625.1 33.37 177.98 4438.3-2.7 1833.1 339.57-35.734z"/>
        <path id="path3393" d="m2474.7 3909.3 86.52 2729.3 259.56-15.731-86.52-2721.5z"/>
    </g>
</svg>
