<svg id="svg2" stroke-linejoin="round" xmlns:rdf="http://www.w3.org/1999/02/22-rdf-syntax-ns#" xmlns="http://www.w3.org/2000/svg" fill-rule="evenodd" xml:space="preserve" height="216.22mm" viewBox="0 0 58243.521 21621.689" width="582.42mm" version="1.2" preserveAspectRatio="xMidYMid" xmlns:cc="http://creativecommons.org/ns#" xmlns:dc="http://purl.org/dc/elements/1.1/" stroke-width="28.222"><metadata id="metadata30"><rdf:RDF><cc:Work rdf:about=""><dc:format>image/svg+xml</dc:format><dc:type rdf:resource="http://purl.org/dc/dcmitype/StillImage"/><dc:title/></cc:Work></rdf:RDF></metadata><g stroke-linejoin="miter" stroke="#000" stroke-width="28.223px" fill="none"><path id="path3617" d="m14.111 3391v18217h57422l793.39-2478.6v-14265l-641.8-2154.4v-732.11l-1025.6-867.56-5502.1-1096.6h-43830z"/><path id="path3619" d="m47619 13.815v21599"/><path id="path3621" d="m42897 21603v-10833h-2651.1v10846"/><path id="path3623" d="m40249 15562h-40231"/><path id="path3625" d="m10240 15564v6043.4"/><path id="path3627" d="m13638 21617v-6058"/><path id="path3629" d="m17631 15560v6048"/><path id="path3631" d="m21515 21608v-6052.5"/><path id="path3633" d="m25100 15560v6048"/><path id="path3635" d="m28719 21606v-6046.3"/><path id="path3637" d="m33027 21617v-6061.2"/><path id="path3641" d="m15590 10326v3541.7h-14262v-3516.6z"/><path id="path3643" d="m20215 13853v-3457.4h18402v3458.5z"/><path id="path3645" d="m29145 10399v3457.4"/><path id="path3647" d="m23291 13856v-3463.8"/><path id="path3649" d="m34548 19.842 3782.1 8721.2h-38313"/><path id="path3651" d="m42936 10.59v6408.4h-2615.6v-6403.1"/><path id="path3653" d="m28879 8743.4v-8729.9"/><path id="path3655" d="m23275 8744.3v-8733.7"/><path id="path3657" d="m17565 8741.1v-8730.5"/><path id="path3659" d="m11889 8734.6v-8721.1"/><path id="path3661" d="m6057.8 8744.3v-8182.2"/></g></svg>
